<?xml version="1.0" encoding="utf-8"?>
<!-- Generator: Adobe Illustrator 25.2.3, SVG Export Plug-In . SVG Version: 6.00 Build 0)  -->
<svg version="1.1" id="Layer_1" xmlns="http://www.w3.org/2000/svg" xmlns:xlink="http://www.w3.org/1999/xlink" x="0px" y="0px"
	 viewBox="0 0 688 681" style="enable-background:new 0 0 688 681;" xml:space="preserve">
<style type="text/css">
	.st0{fill:#205437;}
</style>
<g id="Eagle">
	<path id="Path_5910" class="st0" d="M657.6,599.6L657.6,599.6L657.6,599.6L657.6,599.6L657.6,599.6z"/>
	<path id="Path_5911" class="st0" d="M460.7,226.1C454.8,219.3,241.8-20,241.8-20c-18.5-20.4-12-36.4-11.4-37.6L205.6-2
		c-5.5,15.3,4.8,25.2,12.4,34s231.4,242.5,231.4,242.5l-1.5,12.9L236,75.9c-17-17.4-12.4-30.6-11.6-32.5l-22.7,51.2
		c-5.2,15.9,11.1,26.4,22.4,37.2c12,11.5,247.7,232,267,249.5c41.2,37.6,61.4,87.2,61.4,87.2C576.2,346.7,483.8,252.7,460.7,226.1z"
		/>
	<path id="Path_5912" class="st0" d="M555,678.4l-26.1-47.7l35.4-20.2C583.6,487.4,485,403.8,485,403.8L26.4-24.2
		C4.3-45.7,13.1-73,13.1-73L-24.5,9.7c-10.1,25.9,5.4,42.4,16.3,51.1s366,296.2,366,296.2l0.3,12L4.9,97.8
		c-17.5-13.3-15.5-34.7-15.5-34.7l-25.5,52.7c-12.4,29.6,18.2,48.6,31,57.3s364.9,254,364.9,254l3.1,14.7
		c0,0-341.3-227.1-353.8-234.8C-6,197.7-4.8,176.2-4.8,176.2l-25,53.4c-10.5,21.8,19.3,37,32.5,44.9c7.7,4.7,198.7,118.6,356,212.1
		H154.5c-30.1,0-40.1-8.9-40.1-8.9l27.4,25.6c4.6,4.3,17,19.7,35,19.7c12.8,0,75.3,0.1,75.3,0.1l14.8,6.4l-65.7,5.1
		c-13.1,0.6-16.7,2-34.1-7.7c-0.2-0.1,29.1,28.5,29.1,28.5c8.1,7,14.7,13.9,28.6,12.7s96.4-14.9,96.4-14.9l13.1,5.9L247.5,578
		c-11.6,2.6-23.8,0.5-33.9-5.8c0,0,16.4,16.1,27.2,26.5c11.2,10.8,21.3,17.6,56.9,7.5c14.1-4,84.5-26.2,84.5-26.2l45.3,19.7
		c45.6,63,102.2,96.4,102.2,96.4c-10.8,12.8-1.6,27.8-1.6,27.8c9.4-19.1,30.5-29.6,46.4-27.2c13.9,2,10.2,18.9,10.6,18.3
		c8.5-10.8,15.6-23.8,7-34.8C581.7,666.8,555,678.4,555,678.4z"/>
	<path id="Path_5913" class="st0" d="M676.3,617l-18.6-17.4c-6-2.2-16.8,2.4-16.8,2.4c-2.5-15.4-19.9-36.6-19.9-36.6
		s34.6,32.1,36.7,34.2c0.4-0.8,11.1-24-10.6-44.3c-32.5-30.2-94.6-87-94.5-86.7c4.4,13.9,29.3,58.8,16.1,142.1l32,6.1l3.9,6.5
		c0,0,36.6,4.9,42.3,10.2c0,0,12.6,8.8-0.9,20.9c0,0,20.7-4,32.3-15.4C678.2,638.8,688.8,629.7,676.3,617z"/>
</g>
</svg>
